# Blender 4.2.1 LTS
# www.blender.org
mtllib spaceship8.mtl
o Lo_poly_Spaceship_05_by_Liz_Reddington
v 1.934690 -0.748666 -4.181633
v 2.459011 -0.748666 -4.181634
v 1.934690 -0.224345 -4.181633
v 2.459011 -0.224345 -4.181634
v 1.934692 -0.224346 0.365404
v 2.459012 -0.224346 0.365404
v 1.934692 -0.748666 0.365404
v 2.459012 -0.748666 0.365404
v -1.934693 -0.748666 -4.181633
v -2.459013 -0.748666 -4.181632
v -1.934693 -0.224345 -4.181633
v -2.459013 -0.224345 -4.181632
v -1.934692 -0.224346 0.365406
v -2.459012 -0.224346 0.365406
v -1.934692 -0.748666 0.365406
v -2.459012 -0.748666 0.365406
v -2.614763 -0.839521 1.322796
v -8.539682 -4.089729 -1.591263
v -2.614763 -0.293432 1.322796
v -8.539682 -3.860923 -1.591263
v -3.705525 -0.293432 6.852756
v -8.539681 -3.860923 1.036927
v -3.705525 -0.839521 6.852756
v -8.539681 -4.089729 1.036927
v -4.725608 -1.046230 5.625524
v -4.725608 -1.525366 5.625524
v -3.865015 -1.525366 0.707884
v -3.865015 -1.046229 0.707884
v -7.853181 -3.354302 1.862835
v -7.853181 -3.628166 1.862835
v -7.698281 -3.628166 -1.177436
v -7.698281 -3.354302 -1.177436
v 2.614764 -0.839521 1.322795
v 8.539680 -4.089729 -1.591269
v 2.614764 -0.293432 1.322795
v 8.539680 -3.860923 -1.591269
v 3.705529 -0.293432 6.852753
v 8.539681 -3.860923 1.036921
v 3.705529 -0.839521 6.852753
v 8.539681 -4.089729 1.036921
v 4.725612 -1.046230 5.625521
v 4.725612 -1.525366 5.625521
v 3.865016 -1.525366 0.707881
v 3.865016 -1.046229 0.707881
v 7.853182 -3.354302 1.862830
v 7.853182 -3.628166 1.862830
v 7.698280 -3.628166 -1.177441
v 7.698280 -3.354302 -1.177441
v 0.925920 -0.796636 -2.621860
v 2.373693 -1.516030 0.767351
v 1.608828 0.577709 -2.621860
v 3.056601 -0.141685 0.767351
v 2.308355 1.219671 7.161705
v 4.417496 0.171645 7.161704
v 1.477130 -0.732194 7.161705
v 3.475075 -1.724968 7.161704
v -0.925922 -0.796636 -2.621859
v -2.373693 -1.516030 0.767353
v -1.608830 0.577709 -2.621859
v -3.056601 -0.141685 0.767353
v -2.308350 1.219671 7.161706
v -4.417491 0.171645 7.161707
v -1.477125 -0.732194 7.161706
v -3.475070 -1.724968 7.161706
v 2.181931 -0.562173 2.305457
v 7.371653 1.795954 2.283761
v 2.181931 -0.029027 2.305457
v 7.371653 1.998102 2.283762
v 3.696070 0.436974 6.848664
v 7.371654 1.879176 4.049649
v 3.835668 -0.011493 6.848664
v 7.371654 1.677028 4.049649
v 3.752047 0.571516 2.300814
v 4.482627 0.745598 6.249689
v 4.592353 0.349842 6.249689
v 3.752047 0.109202 2.300814
v -2.181930 -0.562173 2.305458
v -7.371651 1.795954 2.283766
v -2.181930 -0.029027 2.305458
v -7.371651 1.998102 2.283766
v -3.696066 0.436974 6.848667
v -7.371651 1.879176 4.049654
v -3.835664 -0.011493 6.848667
v -7.371651 1.677028 4.049654
v -3.752045 0.571516 2.300816
v -4.482624 0.745598 6.249691
v -4.592349 0.349842 6.249691
v -3.752045 0.109202 2.300816
v 2.058838 -0.624517 -7.759447
v 2.334861 -0.624517 -7.759447
v 2.058838 -0.348494 -7.759446
v 2.334861 -0.348494 -7.759447
v 2.058839 -0.348494 -4.152247
v 2.334862 -0.348494 -4.152248
v 2.058839 -0.624517 -4.152248
v 2.334862 -0.624517 -4.152248
v -1.882946 -0.690270 7.139023
v -3.378804 -1.449411 7.139024
v -2.642088 0.805588 7.139024
v -4.137945 0.046447 7.139024
v -2.466537 1.342927 8.668054
v -4.675283 0.221998 8.668055
v -1.345608 -0.865821 8.668053
v -3.554354 -1.986749 8.668054
v -2.643945 0.799902 8.668054
v -4.132258 0.044589 8.668054
v -3.376946 -1.443724 8.668054
v -1.888632 -0.688412 8.668054
v -2.766113 0.425964 8.063635
v -3.758321 -0.077577 8.063635
v -3.254780 -1.069787 8.063635
v -2.262570 -0.566245 8.063635
v -2.058843 -0.624517 -7.759445
v -2.334866 -0.624517 -7.759445
v -2.058843 -0.348494 -7.759445
v -2.334866 -0.348494 -7.759445
v -2.058842 -0.348494 -4.152246
v -2.334865 -0.348494 -4.152246
v -2.058842 -0.624517 -4.152246
v -2.334865 -0.624517 -4.152246
v 1.882951 -0.690270 7.139022
v 3.378808 -1.449411 7.139021
v 2.642092 0.805588 7.139022
v 4.137950 0.046447 7.139021
v 2.466542 1.342927 8.668052
v 4.675289 0.221998 8.668051
v 1.345613 -0.865821 8.668052
v 3.554360 -1.986749 8.668052
v 2.643951 0.799902 8.668052
v 4.132264 0.044589 8.668052
v 3.376952 -1.443724 8.668052
v 1.888638 -0.688412 8.668052
v 2.766118 0.425964 8.063633
v 3.758327 -0.077577 8.063633
v 3.254785 -1.069787 8.063633
v 2.262576 -0.566245 8.063633
v 0.230431 3.395707 2.743535
v -0.230429 3.395707 2.743535
v 0.124033 4.720509 6.636302
v -0.124029 4.720509 6.636302
v 0.121645 4.720509 7.933515
v -0.121640 4.720509 7.933515
v 0.418501 3.394617 7.779614
v -0.418495 3.394617 7.779614
v 0.668158 -1.176603 -13.089280
v -0.668166 -1.176603 -13.089280
v 0.880647 -0.092704 -13.426236
v -0.880655 -0.092704 -13.426236
v 2.407998 1.480740 7.322087
v -2.407993 1.480740 7.322088
v 1.826981 -0.910522 7.322087
v -1.826976 -0.910522 7.322088
v -1.866809 0.914307 0.496500
v 1.866809 0.914307 0.496499
v -0.982192 3.360519 2.113535
v 0.982193 3.360519 2.113534
v -0.754073 3.926953 9.823891
v 0.754080 3.926953 9.823890
v -1.653644 0.696634 -2.513003
v 1.653642 0.696634 -2.513004
v -0.884281 2.681222 -0.005352
v 0.884281 2.681222 -0.005353
vn -0.0000 -0.0000 -1.0000
vn -0.0000 1.0000 -0.0000
vn -0.0000 -1.0000 -0.0000
vn 1.0000 -0.0000 -0.0000
vn -1.0000 -0.0000 -0.0000
vn 0.4413 -0.0000 -0.8973
vn -0.4969 0.8628 -0.0928
vn -0.5099 0.8572 -0.0722
vn -0.5054 0.8592 -0.0794
vn -0.7690 -0.0000 0.6392
vn 0.4629 -0.8822 0.0865
vn 0.4710 -0.8790 0.0741
vn 0.4754 -0.8772 0.0673
vn 0.4809 -0.8748 0.0588
vn 0.4851 -0.8729 0.0522
vn -0.5199 0.8524 -0.0560
vn -0.5156 0.8545 -0.0630
vn 0.5088 -0.8608 0.0139
vn -0.5442 0.8388 -0.0149
vn -0.4413 -0.0000 -0.8973
vn 0.4969 0.8628 -0.0928
vn 0.5054 0.8592 -0.0794
vn 0.5099 0.8572 -0.0722
vn 0.7690 -0.0000 0.6392
vn -0.4629 -0.8822 0.0865
vn -0.4754 -0.8772 0.0673
vn -0.4710 -0.8790 0.0741
vn -0.4851 -0.8729 0.0522
vn -0.4809 -0.8748 0.0588
vn 0.5156 0.8545 -0.0630
vn 0.5199 0.8524 -0.0560
vn -0.5088 -0.8608 0.0139
vn 0.5442 0.8388 -0.0149
vn 0.8083 -0.4016 -0.4305
vn 0.5291 0.8404 -0.1170
vn -0.0000 -0.0000 1.0000
vn -0.4765 -0.8782 0.0408
vn 0.8830 -0.4388 -0.1664
vn -0.8083 -0.4016 -0.4305
vn -0.5291 0.8404 -0.1170
vn 0.4765 -0.8782 0.0408
vn -0.8830 -0.4388 -0.1664
vn -0.0030 -0.0000 -1.0000
vn -0.0040 -0.0000 -1.0000
vn -0.0036 -0.0000 -1.0000
vn -0.3546 0.9347 0.0233
vn -0.3549 0.9344 0.0299
vn -0.3549 0.9344 0.0310
vn 0.5591 0.1651 0.8125
vn 0.5738 0.1255 0.8093
vn 0.5750 0.1220 0.8090
vn 0.3986 -0.9166 -0.0317
vn 0.4076 -0.9124 -0.0374
vn 0.4066 -0.9129 -0.0368
vn -0.3551 0.9341 0.0364
vn 0.5804 0.1065 0.8073
vn 0.4139 -0.9094 -0.0415
vn -0.0047 -0.0000 -1.0000
vn 0.0030 -0.0000 -1.0000
vn 0.0036 -0.0000 -1.0000
vn 0.0040 -0.0000 -1.0000
vn 0.3546 0.9347 0.0233
vn 0.3549 0.9344 0.0310
vn 0.3549 0.9344 0.0299
vn -0.5591 0.1651 0.8125
vn -0.5750 0.1220 0.8090
vn -0.5738 0.1255 0.8093
vn -0.3986 -0.9166 -0.0317
vn -0.4066 -0.9129 -0.0368
vn -0.4076 -0.9124 -0.0374
vn 0.3551 0.9341 0.0364
vn -0.5804 0.1065 0.8073
vn -0.4139 -0.9094 -0.0415
vn 0.0047 -0.0000 -1.0000
vn -0.4378 0.8627 -0.2529
vn 0.4378 -0.8627 -0.2529
vn -0.8627 -0.4378 -0.2529
vn 0.8627 0.4378 -0.2529
vn 0.4111 -0.8101 0.4181
vn 0.8101 0.4111 0.4181
vn -0.4111 0.8101 0.4181
vn -0.8101 -0.4111 0.4181
vn 0.4378 0.8627 -0.2529
vn -0.4378 -0.8627 -0.2529
vn 0.8627 -0.4378 -0.2529
vn -0.8627 0.4378 -0.2529
vn -0.4111 -0.8101 0.4181
vn -0.8101 0.4111 0.4181
vn 0.4111 0.8101 0.4181
vn 0.8101 -0.4111 0.4181
vn -0.0000 0.9467 -0.3222
vn -0.0000 -0.1153 0.9933
vn -0.9808 0.1931 -0.0287
vn 0.9808 0.1931 -0.0287
vn -0.0000 -0.2969 -0.9549
vn -0.0000 0.9974 -0.0721
vn -0.0000 -0.9999 0.0130
vn -0.9732 -0.2235 -0.0541
vn -0.9717 -0.2294 -0.0560
vn -0.9701 -0.2357 -0.0574
vn 0.9717 -0.2294 -0.0560
vn 0.9753 -0.2143 -0.0529
vn 0.9753 -0.2144 -0.0529
vn -0.0000 0.9973 -0.0733
vn -0.0000 0.7841 -0.6206
vn -0.8656 0.4975 -0.0574
vn -0.0000 -0.7150 0.6991
vn 0.8656 0.4975 -0.0574
vn -0.8805 0.4381 -0.1812
vn -0.0000 0.9523 -0.3053
vn 0.8813 0.4628 -0.0959
vn -0.8813 0.4628 -0.0959
vn 0.8805 0.4381 -0.1812
vn -0.9753 -0.2144 -0.0529
vn -0.9753 -0.2143 -0.0529
vn 0.9732 -0.2235 -0.0541
vn 0.9701 -0.2357 -0.0574
vt 0.375000 0.000000
vt 0.375000 0.250000
vt 0.625000 0.250000
vt 0.625000 0.000000
vt 0.375000 0.500000
vt 0.625000 0.500000
vt 0.375000 0.750000
vt 0.375000 1.000000
vt 0.625000 1.000000
vt 0.625000 0.750000
vt 0.875000 0.250000
vt 0.875000 0.000000
vt 0.125000 0.000000
vt 0.125000 0.250000
vt 0.427754 0.000000
vt 0.427754 0.250000
vt 0.427754 0.500000
vt 0.427754 0.750000
vt 0.427754 1.000000
vt 0.589497 0.500000
vt 0.589497 0.750000
vt 0.589497 1.000000
vt 0.589497 0.000000
vt 0.589497 0.250000
vt 0.428499 0.250000
vt 0.428499 0.000000
vt 0.428499 0.500000
vt 0.428499 0.750000
vt 0.428499 1.000000
vt 0.625000 0.357581
vt 0.375000 0.357581
vt 0.762248 0.250000
vt 0.267420 0.250000
vt 0.375000 0.387248
vt 0.625000 0.387248
vt 0.732580 0.250000
vt 0.237752 0.250000
s 0
usemtl lambert4SG
f 1/1/1 3/2/1 4/3/1 2/4/1
f 3/2/2 5/5/2 6/6/2 4/3/2
f 7/7/3 1/8/3 2/9/3 8/10/3
f 2/4/4 4/3/4 6/11/4 8/12/4
f 7/13/5 5/14/5 3/2/5 1/1/5
f 9/1/1 10/4/1 12/3/1 11/2/1
f 11/2/2 12/3/2 14/6/2 13/5/2
f 15/7/3 16/10/3 10/9/3 9/8/3
f 10/4/5 16/12/5 14/11/5 12/3/5
f 15/13/4 9/1/4 11/2/4 13/14/4
f 89/1/1 91/2/1 92/3/1 90/4/1
f 91/2/2 93/5/2 94/6/2 92/3/2
f 95/7/3 89/8/3 90/9/3 96/10/3
f 90/4/4 92/3/4 94/11/4 96/12/4
f 95/13/5 93/14/5 91/2/5 89/1/5
f 109/5/36 110/6/36 111/10/36 112/7/36
f 113/1/1 114/4/1 116/3/1 115/2/1
f 115/2/2 116/3/2 118/6/2 117/5/2
f 119/7/3 120/10/3 114/9/3 113/8/3
f 114/4/5 120/12/5 118/11/5 116/3/5
f 119/13/4 113/1/4 115/2/4 117/14/4
f 133/5/36 136/7/36 135/10/36 134/6/36
f 160/34/105 159/35/105 161/35/105 162/34/105
f 153/35/109 155/35/109 161/35/109
f 155/35/110 156/34/110 162/34/110 161/35/110
f 162/34/111 154/34/111 160/34/111
f 153/35/112 161/35/112 159/35/112
f 156/34/113 154/34/113 162/34/113
s 1
usemtl lambert3SG
f 17/1/6 27/15/6 28/16/6 19/2/6
f 19/2/7 28/16/8 25/17/9 21/5/7
f 21/5/10 25/17/10 26/18/10 23/7/10
f 23/7/11 26/18/12 27/19/13 17/8/11
s 0
f 18/4/5 24/12/5 22/11/5 20/3/5
s 1
f 29/20/10 22/6/10 24/10/10 30/21/10
f 31/22/15 30/21/14 24/10/18 18/9/18
f 32/24/6 31/23/6 18/4/6 20/3/6
f 29/20/17 32/24/16 20/3/19 22/6/19
f 33/1/20 35/2/20 44/16/20 43/15/20
f 35/2/21 37/5/21 41/17/22 44/16/23
f 37/5/24 39/7/24 42/18/24 41/17/24
f 39/7/25 33/8/25 43/19/26 42/18/27
s 0
f 34/4/4 36/3/4 38/11/4 40/12/4
s 1
f 45/20/24 46/21/24 40/10/24 38/6/24
f 47/22/28 34/9/32 40/10/32 46/21/29
f 48/24/20 36/3/20 34/4/20 47/23/20
f 45/20/30 38/6/33 36/3/33 48/24/31
s 0
f 49/1/34 51/2/34 52/3/34 50/4/34
f 51/2/35 53/5/35 54/6/35 52/3/35
f 53/5/36 55/7/36 56/10/36 54/6/36
f 55/7/37 49/8/37 50/9/37 56/10/37
f 50/4/38 52/3/38 54/11/38 56/12/38
f 57/1/39 58/4/39 60/3/39 59/2/39
f 59/2/40 60/3/40 62/6/40 61/5/40
f 61/5/36 62/6/36 64/10/36 63/7/36
f 63/7/41 64/10/41 58/9/41 57/8/41
f 58/4/42 64/12/42 62/11/42 60/3/42
s 1
f 65/1/43 67/2/43 73/25/44 76/26/45
f 67/2/46 69/5/46 74/27/47 73/25/48
f 69/5/49 71/7/49 75/28/50 74/27/51
f 71/7/52 65/8/52 76/29/53 75/28/54
f 77/1/59 88/26/60 85/25/61 79/2/59
f 79/2/62 85/25/63 86/27/64 81/5/62
f 81/5/65 86/27/66 87/28/67 83/7/65
f 83/7/68 87/28/69 88/29/70 77/8/68
s 0
f 137/1/91 138/4/91 140/3/91 139/2/91
f 139/2/2 140/3/2 142/6/2 141/5/2
f 141/5/92 142/6/92 144/10/92 143/7/92
f 138/4/93 144/12/93 142/11/93 140/3/93
f 143/13/94 137/1/94 139/2/94 141/14/94
s 1
usemtl lambert2SG
f 25/17/10 29/20/10 30/21/10 26/18/10
f 27/19/13 26/18/12 30/21/14 31/22/15
f 28/16/6 27/15/6 31/23/6 32/24/6
f 25/17/9 28/16/8 32/24/16 29/20/17
f 41/17/24 42/18/24 46/21/24 45/20/24
f 43/19/26 47/22/28 46/21/29 42/18/27
f 44/16/20 48/24/20 47/23/20 43/15/20
f 41/17/22 45/20/30 48/24/31 44/16/23
s 0
f 66/4/4 68/3/4 70/11/4 72/12/4
s 1
f 73/25/48 74/27/47 70/6/55 68/3/55
f 75/28/50 72/10/56 70/6/56 74/27/51
f 76/29/53 66/9/57 72/10/57 75/28/54
f 73/25/44 68/3/58 66/4/58 76/26/45
s 0
f 78/4/5 84/12/5 82/11/5 80/3/5
s 1
f 85/25/63 80/3/71 82/6/71 86/27/64
f 87/28/67 86/27/66 82/6/72 84/10/72
f 88/29/70 87/28/69 84/10/73 78/9/73
f 85/25/61 88/26/60 78/4/74 80/3/74
s 0
f 99/2/75 100/3/75 102/6/75 101/5/75
f 103/7/76 104/10/76 98/9/76 97/8/76
f 98/4/77 104/12/77 102/11/77 100/3/77
f 103/13/78 97/1/78 99/2/78 101/14/78
s 1
f 101/5/36 102/6/36 106/6/36 105/5/36
f 102/6/36 104/10/36 107/10/36 106/6/36
f 104/10/36 103/7/36 108/7/36 107/10/36
f 103/7/36 101/5/36 105/5/36 108/7/36
s 0
f 105/5/79 106/6/79 110/6/79 109/5/79
f 106/6/80 107/10/80 111/10/80 110/6/80
f 107/10/81 108/7/81 112/7/81 111/10/81
f 108/7/82 105/5/82 109/5/82 112/7/82
f 123/2/83 125/5/83 126/6/83 124/3/83
f 127/7/84 121/8/84 122/9/84 128/10/84
f 122/4/85 124/3/85 126/11/85 128/12/85
f 127/13/86 125/14/86 123/2/86 121/1/86
s 1
f 125/5/36 129/5/36 130/6/36 126/6/36
f 126/6/36 130/6/36 131/10/36 128/10/36
f 128/10/36 131/10/36 132/7/36 127/7/36
f 127/7/36 132/7/36 129/5/36 125/5/36
s 0
f 129/5/87 133/5/87 134/6/87 130/6/87
f 130/6/88 134/6/88 135/10/88 131/10/88
f 131/10/89 135/10/89 136/7/89 132/7/89
f 132/7/90 136/7/90 133/5/90 129/5/90
f 145/1/95 146/4/95 148/3/95 147/2/95
f 147/2/96 148/3/96 159/30/96 160/31/96
f 149/5/36 150/6/36 152/10/36 151/7/36
f 152/10/97 146/9/97 145/8/97 151/7/97
s 1
f 153/32/98 152/12/99 150/11/100
f 151/13/101 145/1/102 147/2/102 160/33/103
s 0
f 156/34/104 155/35/104 157/6/104 158/5/104
f 153/35/106 150/6/106 157/6/106 155/35/106
f 150/6/107 149/5/107 158/5/107 157/6/107
f 149/5/108 154/34/108 156/34/108 158/5/108
s 1
f 152/12/99 159/36/114 148/3/115 146/4/115
f 151/13/101 154/37/116 149/14/117
f 153/32/98 159/36/114 152/12/99
f 151/13/101 160/33/103 154/37/116
